<?xml version="1.0" standalone="no"?>
<!DOCTYPE svg PUBLIC "-//W3C//DTD SVG 20010904//EN"
 "http://www.w3.org/TR/2001/REC-SVG-20010904/DTD/svg10.dtd">
<svg version="1.0" xmlns="http://www.w3.org/2000/svg"
 width="288.000000pt" height="288.000000pt" viewBox="0 0 288.000000 288.000000"
 preserveAspectRatio="xMidYMid meet">

<g transform="translate(0.000000,288.000000) scale(0.100000,-0.100000)"
fill="#000000" stroke="none">
<path d="M1215 2795 c-371 -65 -712 -283 -910 -580 -277 -415 -317 -915 -109
-1364 95 -206 289 -430 483 -556 236 -155 478 -228 756 -228 232 0 423 46 630
151 371 189 633 534 722 952 13 64 18 129 18 265 0 200 -9 262 -61 426 -150
468 -532 812 -1029 925 -99 22 -395 28 -500 9z m343 -117 c-3 -33 -3 -33 -65
-36 -79 -4 -82 -20 -5 -24 56 -3 57 -3 57 -33 0 -30 -1 -30 -57 -33 -43 -2
-58 -7 -58 -17 0 -12 15 -15 65 -15 l65 0 0 -30 0 -30 -110 0 -110 0 0 118 c0
65 3 122 7 125 3 4 53 7 110 7 l104 0 -3 -32z m216 -14 c69 -19 106 -51 106
-91 0 -32 -34 -93 -51 -93 -12 0 -8 -35 7 -74 7 -17 4 -19 -30 -13 -49 8 -66
23 -66 58 0 37 -27 39 -40 3 -9 -23 -14 -26 -42 -20 -18 3 -36 10 -40 14 -4 4
6 55 22 112 39 136 37 132 57 126 10 -3 45 -12 77 -22z m-564 -9 c38 -19 60
-63 60 -116 0 -59 -44 -100 -135 -128 -38 -11 -72 -17 -76 -13 -7 9 -59 205
-59 225 0 17 87 45 143 46 21 1 51 -6 67 -14z m-267 -173 c32 -53 58 -101 59
-107 1 -5 -10 -17 -24 -25 -24 -13 -32 -12 -85 5 -32 11 -64 21 -72 23 -9 3
-4 -13 14 -44 l28 -47 -23 -19 c-12 -10 -27 -18 -34 -18 -6 0 -39 46 -74 102
l-62 103 22 17 c29 23 42 22 106 -2 72 -27 76 -26 47 20 -14 22 -25 44 -25 49
0 12 40 41 55 41 5 0 36 -44 68 -98z m1162 43 c52 -30 84 -73 64 -87 -43 -28
-46 -28 -79 10 -21 23 -35 32 -37 24 -3 -7 9 -28 27 -48 40 -46 39 -96 -2
-127 -41 -31 -92 -16 -150 42 -27 27 -48 52 -48 57 0 6 13 17 29 27 l29 17 27
-40 c16 -22 36 -40 46 -40 26 0 24 4 -15 48 -46 51 -51 87 -16 122 27 27 74
25 125 -5z m-535 -160 c432 -65 748 -393 800 -828 20 -167 -9 -333 -86 -496
-221 -469 -774 -670 -1241 -451 -106 50 -162 88 -252 174 -129 125 -215 270
-263 446 -33 123 -33 338 1 460 106 380 411 649 796 700 94 12 143 11 245 -5z
m-966 -14 c17 -19 16 -21 -23 -64 -23 -24 -41 -47 -41 -51 0 -16 28 -3 62 31
l38 37 22 -22 22 -22 -38 -39 c-59 -60 -35 -74 25 -15 l49 48 22 -21 21 -22
-50 -58 c-28 -32 -62 -68 -75 -80 l-23 -22 -88 80 c-48 44 -87 85 -87 91 0 14
123 148 136 148 6 0 19 -9 28 -19z m1722 -7 c72 -34 104 -129 65 -191 -27 -43
-62 -64 -108 -65 -124 -1 -193 141 -111 230 42 44 96 53 154 26z m-1746 -339
c0 -10 -34 -75 -39 -75 -3 0 -19 9 -36 20 -38 25 -39 25 -53 -5 -17 -37 -16
-41 23 -64 l36 -21 -17 -32 c-9 -18 -18 -34 -19 -36 -4 -5 -225 107 -225 114
0 3 7 18 15 34 17 33 28 36 65 15 35 -20 45 -18 58 10 17 37 16 39 -23 58 -39
19 -41 26 -20 67 l15 30 110 -55 c61 -30 110 -57 110 -60z m1960 74 c12 -27
10 -36 -15 -90 -16 -32 -26 -61 -23 -65 3 -3 24 4 47 15 22 12 43 21 45 21 6
0 36 -55 36 -64 0 -9 -198 -106 -214 -106 -9 0 -22 12 -30 27 -13 25 -12 32
15 85 16 32 29 62 29 68 0 6 -23 -1 -50 -15 l-50 -25 -17 35 c-9 19 -14 37
-12 40 7 6 212 104 220 105 4 0 12 -14 19 -31z m-2174 -417 c-21 -138 -17
-350 10 -459 5 -18 -2 -26 -36 -43 -28 -14 -46 -18 -52 -12 -37 37 -57 311
-34 461 20 130 25 137 78 110 38 -19 40 -22 34 -57z m2244 10 c18 -72 24 -335
11 -422 -15 -92 -24 -105 -72 -89 -44 16 -48 22 -38 72 23 122 20 292 -7 424
-6 29 -3 33 32 51 21 11 44 18 51 15 6 -3 17 -26 23 -51z m-2105 -664 c19 -40
35 -84 35 -98 0 -39 -22 -63 -57 -62 -23 0 -33 -5 -41 -23 -6 -14 -23 -27 -38
-31 -50 -13 -75 6 -120 91 -24 43 -40 83 -37 88 5 8 200 104 216 106 4 1 23
-31 42 -71z m2063 -2 c25 -28 32 -44 32 -76 0 -80 -61 -150 -131 -150 -103 0
-165 90 -125 183 42 98 153 120 224 43z m-1918 -226 c27 -34 52 -71 55 -83 13
-50 -36 -110 -90 -110 -20 1 -27 -7 -37 -38 -13 -46 -25 -48 -57 -8 -20 26
-22 34 -12 55 23 51 6 71 -31 37 -17 -15 -20 -15 -43 7 -14 13 -25 29 -25 35
0 12 169 164 182 165 4 0 30 -27 58 -60z m1670 -3 c0 -28 -5 -36 -32 -48 -43
-19 -46 -62 -6 -92 25 -19 28 -19 52 -4 13 9 26 27 28 39 2 19 10 24 42 26
l39 3 -6 -36 c-11 -69 -70 -125 -130 -125 -43 0 -97 29 -119 64 -24 39 -20
116 8 148 27 30 75 58 102 58 18 0 22 -5 22 -33z m-1445 -197 c41 -28 75 -54
75 -58 -1 -12 -27 -42 -36 -42 -5 0 -29 14 -54 30 -50 33 -60 36 -60 18 0 -7
20 -26 45 -41 39 -25 43 -31 34 -48 -16 -32 -35 -33 -76 -5 -42 29 -53 32 -53
14 0 -7 23 -28 50 -46 44 -28 49 -35 40 -52 -5 -10 -15 -22 -21 -25 -16 -11
-182 103 -175 120 3 8 33 56 66 106 42 61 66 89 76 85 8 -3 48 -28 89 -56z
m1159 -28 c3 -5 2 -22 -3 -38 -6 -24 -14 -30 -45 -35 -58 -9 -76 -59 -36 -99
24 -24 39 -25 65 -6 17 12 18 17 7 41 -7 15 -11 29 -10 30 10 8 48 25 57 25 6
0 20 -19 32 -41 24 -48 17 -72 -30 -106 -69 -51 -148 -48 -194 7 -64 75 -35
171 63 214 39 17 86 21 94 8z m-1016 -63 c31 -10 31 -12 34 -82 l3 -72 36 60
c30 51 39 59 60 56 56 -8 62 -18 56 -87 -4 -35 -2 -64 2 -64 5 0 23 25 41 56
30 53 33 56 63 50 17 -4 35 -10 40 -15 5 -5 -22 -54 -64 -115 -78 -113 -72
-109 -138 -84 -21 8 -23 13 -19 58 7 73 -5 80 -38 20 -27 -50 -30 -52 -63 -46
-19 3 -39 10 -44 15 -10 10 -28 239 -20 254 6 10 14 9 51 -4z m757 -51 c39
-173 46 -221 33 -229 -28 -18 -62 -8 -110 32 -27 23 -51 39 -54 36 -3 -3 -2
-26 4 -51 11 -51 11 -51 -34 -60 -28 -6 -32 -4 -38 19 -7 28 -46 215 -46 221
0 2 16 6 35 10 31 5 40 1 91 -42 l56 -49 -7 62 -7 61 29 5 c15 2 31 5 35 6 4
0 10 -9 13 -21z m-295 -153 l0 -125 -45 0 -45 0 0 118 c0 65 3 122 7 125 3 4
24 7 45 7 l38 0 0 -125z"/>
<path d="M1735 2579 c-8 -23 7 -39 36 -39 22 0 33 29 18 46 -17 21 -47 17 -54
-7z"/>
<path d="M1100 2584 c0 -37 23 -104 36 -104 16 0 54 35 54 50 0 6 -7 24 -15
40 -12 23 -22 30 -45 30 -21 0 -30 -5 -30 -16z"/>
<path d="M1314 2250 c-338 -49 -625 -332 -685 -674 -15 -86 -6 -268 16 -351
74 -271 310 -507 580 -580 85 -23 249 -30 341 -16 358 58 632 338 685 703 24
163 -15 361 -102 515 -56 100 -188 235 -285 291 -172 102 -360 140 -550 112z
m650 -255 c-1 -11 -17 -81 -37 -155 -116 -438 -168 -660 -157 -680 18 -34 50
-24 102 31 48 51 48 51 74 34 23 -15 26 -22 21 -56 -9 -68 -107 -198 -176
-234 -121 -62 -263 5 -263 122 0 38 38 218 68 326 5 15 -3 17 -64 17 -135 0
-122 13 -167 -183 -54 -239 -105 -335 -197 -377 -124 -56 -276 7 -344 143 -22
43 -25 60 -22 121 5 90 27 135 100 209 59 59 180 126 258 142 19 4 42 11 50
15 13 8 104 359 94 369 -1 2 -20 0 -41 -4 -23 -4 -51 -20 -75 -45 -43 -43 -49
-77 -22 -134 26 -53 15 -66 -56 -66 -96 0 -152 34 -175 108 -23 75 34 171 128
216 58 28 235 63 369 73 79 5 88 4 94 -12 9 -23 -4 -93 -55 -305 -21 -91 -39
-166 -38 -166 1 -1 46 1 99 3 l98 6 10 36 c5 20 30 122 55 226 25 105 49 197
54 205 8 16 130 39 186 37 23 -2 30 -7 29 -22z"/>
<path d="M1112 1329 c-143 -71 -207 -214 -125 -279 57 -45 119 -7 152 93 39
121 60 217 47 217 -7 0 -40 -14 -74 -31z"/>
<path d="M2240 2260 c-36 -36 -21 -90 27 -90 25 0 63 36 63 60 0 21 -31 50
-53 50 -9 0 -26 -9 -37 -20z"/>
<path d="M431 971 c-10 -7 -11 -13 -1 -30 13 -26 36 -22 32 5 -5 26 -15 35
-31 25z"/>
<path d="M351 931 c-17 -11 2 -51 24 -51 18 0 18 8 2 37 -8 15 -17 19 -26 14z"/>
<path d="M2428 959 c-18 -10 -24 -45 -10 -65 13 -20 52 -35 72 -29 43 14 43
72 1 94 -24 13 -41 13 -63 0z"/>
<path d="M570 715 c-11 -14 -10 -19 8 -38 21 -20 23 -20 39 -4 14 13 15 21 7
35 -15 23 -38 26 -54 7z"/>
</g>
</svg>
